v 0.000000 -3.406404 5.979507
v 0.000000 -1.126865 7.475604
v 0.000000 -2.089024 6.058267
v -0.463928 0.955357 6.633583
v 0.000000 -0.463170 7.586580
v 0.000000 0.365669 7.242870
v 0.000000 2.473255 5.788627
v -4.253081 2.577646 3.279702
v 0.000000 4.019042 5.284764
v 0.000000 4.885979 5.385258
v 0.000000 8.261778 4.481535
v 0.000000 -3.706811 5.864924
v 0.000000 -3.918301 5.569430
v 0.000000 -3.994436 5.219482
v 0.000000 -4.542400 5.404754
v 0.000000 -4.745577 5.529457
v 0.000000 -5.019567 5.601448
v 0.000000 -5.365123 5.535441
v 0.000000 -6.149624 5.071372
v 0.000000 -1.501095 7.112196
v -0.416106 -1.466449 6.447657
v -7.087960 5.434801 0.099620
v -2.628639 2.035898 3.848121
v -3.198363 1.985815 3.796952
v -3.775151 2.039402 3.646194
v -4.465819 2.422950 3.155168
v -2.164289 2.189867 3.851822
v -3.208229 3.223926 4.115822
v -2.673803 3.205337 4.092203
v -3.745193 3.165286 3.972409
v -4.161018 3.059069 3.719554
v -5.062006 1.934418 2.776093
v -2.266659 -7.425768 4.389812
v -4.445859 2.663991 3.173422
v -7.214530 2.263009 0.073150
v -5.799793 2.349546 2.204059
v -2.844939 -0.720868 4.433130
v -0.711452 -3.329355 5.877044
v -0.606033 -3.924562 5.444923
v -1.431615 -3.500953 5.496189
v -1.914910 -3.803146 5.028930
v -1.131043 -3.973937 5.189648
v -1.563548 -4.082763 4.842263
v -2.650112 -5.003649 4.188483
v -0.427049 -1.094134 7.360529
v -0.496396 -0.475659 7.440358
v -5.253307 3.881582 3.363159
v -1.718698 0.974609 4.558359
v -1.608635 -0.942516 5.814193
v -1.651267 -0.610868 5.581319
v -4.765501 -0.701554 3.534632
v -0.478306 0.295766 7.101013
v -3.734964 4.508230 4.550454
v -4.588603 4.302037 4.048484
v -6.279331 6.615427 1.425850
v -1.220941 4.142165 5.106035
v -2.193489 3.100317 4.000575
v -3.102642 -4.352984 4.095905
v -6.719682 -4.788645 -1.745401
v -1.193824 -1.306795 5.737747
v -0.729766 -1.593712 5.833208
v -2.456206 -4.342621 4.283884
v -2.204823 -4.304508 4.162499
v -4.985894 4.802461 3.751977
v -1.592294 -1.257709 5.456949
v -2.644548 4.524654 4.921559
v -2.760292 5.100971 5.015990
v -3.523964 8.005976 3.729163
v -5.599763 5.715470 2.724259
v -3.063932 6.566144 4.529981
v -5.720968 4.254584 2.830852
v -6.374393 4.785590 1.591691
v -0.672728 -3.688016 5.737804
v -1.262560 -3.787691 5.417779
v -1.732553 -3.952767 5.000579
v -1.043625 -1.464973 5.662455
v -2.321234 -4.329069 4.258156
v -2.056846 -4.477671 4.520883
v -2.153084 -4.276322 4.038093
v -0.946874 -1.035249 6.512274
v -1.469132 -4.036351 4.604908
v -1.024340 -3.989851 4.926693
v -0.533422 -3.993222 5.138202
v -0.769720 -6.095394 4.985883
v -0.699606 -5.291850 5.448304
v -0.669687 -4.949770 5.509612
v -0.630947 -4.695101 5.449371
v -0.583218 -4.517982 5.339869
v -1.537170 -4.423206 4.745470
v -1.615600 -4.475942 4.813632
v -1.729053 -4.618680 4.854463
v -1.838624 -4.828746 4.823737
v -2.368250 -3.106237 4.868096
v -7.542244 -1.049282 -2.431321
v 0.000000 -1.724003 6.601390
v -1.826614 -4.399531 4.399021
v -1.929558 -4.411831 4.497052
v -0.597442 -2.013686 5.866456
v -1.405627 -1.714196 5.241087
v -0.662449 -1.819321 5.863759
v -2.342340 0.572222 4.294303
v -3.327324 0.104863 4.113860
v -1.726175 -0.919165 5.273355
v -5.133204 7.485602 2.660442
v -4.538641 6.319907 3.683424
v -3.986562 5.109487 4.466315
v -2.169681 -5.440433 4.455874
v -1.395634 5.011963 5.316032
v -1.619500 6.599217 4.921106
v -1.891399 8.236377 4.274997
v -4.195832 2.235205 3.375099
v -5.733342 1.411738 2.431726
v -1.859887 2.355757 3.843181
v -4.988612 3.074654 3.083858
v -1.303263 1.416453 4.831091
v -1.305757 -0.672779 6.415959
v -6.465170 0.937119 1.689873
v -5.258659 0.945811 2.974312
v -4.432338 0.722096 3.522615
v -3.300681 0.861641 3.872784
v -2.430178 1.131492 4.039035
v -1.820731 1.467954 4.224124
v -0.563221 2.307693 5.566789
v -6.338145 -0.529279 1.881175
v -5.587698 3.208071 2.687839
v -0.242624 -1.462857 7.071491
v -1.611251 0.339326 4.895421
v -7.743095 2.364999 -2.005167
v -1.391142 1.851048 4.448999
v -1.785794 -0.978284 4.850470
v -4.670959 2.664461 3.084075
v -1.333970 -0.283761 6.097047
v -7.270895 -2.890917 -2.252455
v -1.856432 2.585245 3.757904
v -0.923388 0.073076 6.671944
v -5.000589 -6.135128 1.892523
v -5.085276 -7.178590 0.714711
v -7.159291 -0.811820 -0.072044
v -5.843051 -5.248023 0.924091
v -6.847258 3.662916 0.724695
v -2.412942 -8.258853 4.119213
v -0.179909 -1.689864 6.573301
v -2.103655 -0.163946 4.566119
v -6.407571 2.236021 1.560843
v -3.670075 2.360153 3.635230
v -3.177186 2.294265 3.775704
v -2.196121 -4.598322 4.479786
v -6.234883 -1.944430 1.663542
v -1.292924 -9.295920 4.094063
v -3.210651 -8.533278 2.802001
v -4.068926 -7.993109 1.925119
v 0.000000 6.545390 5.027311
v 0.000000 -9.403378 4.264492
v -2.724032 2.315802 3.777151
v -2.288460 2.398891 3.697603
v -1.998311 2.496547 3.689148
v -6.130040 3.399261 2.038516
v -2.288460 2.886504 3.775031
v -2.724032 2.961810 3.871767
v -3.177186 2.964136 3.876973
v -3.670075 2.927714 3.724325
v -4.018389 2.857357 3.482983
v -7.555811 4.106811 -0.991917
v -4.018389 2.483695 3.440898
v 0.000000 -2.521945 5.932265
v -1.776217 -2.683946 5.213116
v -1.222237 -1.182444 5.952465
v -0.731493 -2.536683 5.815343
v 0.000000 3.271027 5.236015
v -4.135272 -6.996638 2.671970
v -3.311811 -7.660815 3.382963
v -1.313701 -8.639995 4.702456
v -5.940524 -6.223629 -0.631468
v -1.998311 2.743838 3.744030
v -0.901447 1.236992 5.754256
v 0.000000 -8.765243 4.891441
v -2.308977 -8.974196 3.609070
v -6.954154 -2.439843 -0.131163
v -1.098819 -4.458788 5.120727
v -1.181124 -4.579996 5.189564
v -1.255818 -4.787901 5.237051
v -1.325085 -5.106507 5.205010
v -1.546388 -5.819392 4.757893
v -1.953754 -4.183892 4.431713
v -2.117802 -4.137093 4.555096
v -2.285339 -4.051196 4.582438
v -2.850160 -3.665720 4.484994
v -5.278538 -2.238942 2.861224
v -0.946709 1.907628 5.196779
v -1.314173 3.104912 4.231404
v -1.780000 2.860000 3.881555
v -1.845110 -4.098880 4.247264
v -5.436187 -4.030482 2.109852
v -0.766444 3.182131 4.861453
v -1.938616 -6.614410 4.521085
v 0.000000 1.059413 6.774605
v -0.516573 1.583572 6.148363
v 0.000000 1.728369 6.316750
v -1.246815 0.230297 5.681036
v 0.000000 -7.942194 5.181173
v 0.000000 -6.991499 5.153478
v -0.997827 -6.930921 4.979576
v -3.288807 -5.382514 3.795752
v -2.311631 -1.566237 4.590085
v -2.680250 -6.111567 4.096152
v -3.832928 -1.537326 4.137731
v -2.961860 -2.274215 4.440943
v -4.386901 -2.683286 3.643886
v -1.217295 -7.834465 4.969286
v -1.542374 -0.136843 5.201008
v -3.878377 -6.041764 3.311079
v -3.084037 -6.809842 3.814195
v -3.747321 -4.503545 3.726453
v -6.094129 -3.205991 1.473482
v -4.588995 -4.728726 2.983221
v -6.583231 -3.941269 0.070268
v -3.492580 -3.195820 4.130198
v -1.255543 0.802341 5.307551
v -1.126122 -0.933602 6.538785
v -1.443109 -1.142774 5.905127
v -0.923043 -0.529042 7.003423
v -1.755386 3.529117 4.327696
v -2.632589 3.713828 4.364629
v -3.388062 3.721976 4.309028
v -4.075766 3.675413 4.076063
v -4.622910 3.474691 3.646321
v -5.171755 2.535753 2.670867
v -7.297331 0.763172 -0.048769
v -4.706828 1.651000 3.109532
v -4.071712 1.476821 3.476944
v -3.269817 1.470659 3.731945
v -2.527572 1.617311 3.865444
v -1.970894 1.858505 3.961782
v -1.579543 2.097941 4.084996
v -7.664182 0.673132 -2.435867
v -1.397041 -1.340139 5.630378
v -0.884838 0.658740 6.233232
v -0.767097 -0.968035 7.077932
v -0.460213 -1.334106 6.787447
v -0.748618 -1.067994 6.798303
v -1.236408 -1.585568 5.480490
v -0.387306 -1.409990 6.957705
v -0.319925 -1.607931 6.508676
v -1.639633 2.556298 3.863736
v -1.255645 2.467144 4.203800
v -1.031362 2.382663 4.615849
v -4.253081 2.772296 3.315305
v -4.530000 2.910000 3.339685
v 0.463928 0.955357 6.633583
v 4.253081 2.577646 3.279702
v 0.416106 -1.466449 6.447657
v 7.087960 5.434801 0.099620
v 2.628639 2.035898 3.848121
v 3.198363 1.985815 3.796952
v 3.775151 2.039402 3.646194
v 4.465819 2.422950 3.155168
v 2.164289 2.189867 3.851822
v 3.208229 3.223926 4.115822
v 2.673803 3.205337 4.092203
v 3.745193 3.165286 3.972409
v 4.161018 3.059069 3.719554
v 5.062006 1.934418 2.776093
v 2.266659 -7.425768 4.389812
v 4.445859 2.663991 3.173422
v 7.214530 2.263009 0.073150
v 5.799793 2.349546 2.204059
v 2.844939 -0.720868 4.433130
v 0.711452 -3.329355 5.877044
v 0.606033 -3.924562 5.444923
v 1.431615 -3.500953 5.496189
v 1.914910 -3.803146 5.028930
v 1.131043 -3.973937 5.189648
v 1.563548 -4.082763 4.842263
v 2.650112 -5.003649 4.188483
v 0.427049 -1.094134 7.360529
v 0.496396 -0.475659 7.440358
v 5.253307 3.881582 3.363159
v 1.718698 0.974609 4.558359
v 1.608635 -0.942516 5.814193
v 1.651267 -0.610868 5.581319
v 4.765501 -0.701554 3.534632
v 0.478306 0.295766 7.101013
v 3.734964 4.508230 4.550454
v 4.588603 4.302037 4.048484
v 6.279331 6.615427 1.425850
v 1.220941 4.142165 5.106035
v 2.193489 3.100317 4.000575
v 3.102642 -4.352984 4.095905
v 6.719682 -4.788645 -1.745401
v 1.193824 -1.306795 5.737747
v 0.729766 -1.593712 5.833208
v 2.456206 -4.342621 4.283884
v 2.204823 -4.304508 4.162499
v 4.985894 4.802461 3.751977
v 1.592294 -1.257709 5.456949
v 2.644548 4.524654 4.921559
v 2.760292 5.100971 5.015990
v 3.523964 8.005976 3.729163
v 5.599763 5.715470 2.724259
v 3.063932 6.566144 4.529981
v 5.720968 4.254584 2.830852
v 6.374393 4.785590 1.591691
v 0.672728 -3.688016 5.737804
v 1.262560 -3.787691 5.417779
v 1.732553 -3.952767 5.000579
v 1.043625 -1.464973 5.662455
v 2.321234 -4.329069 4.258156
v 2.056846 -4.477671 4.520883
v 2.153084 -4.276322 4.038093
v 0.946874 -1.035249 6.512274
v 1.469132 -4.036351 4.604908
v 1.024340 -3.989851 4.926693
v 0.533422 -3.993222 5.138202
v 0.769720 -6.095394 4.985883
v 0.699606 -5.291850 5.448304
v 0.669687 -4.949770 5.509612
v 0.630947 -4.695101 5.449371
v 0.583218 -4.517982 5.339869
v 1.537170 -4.423206 4.745470
v 1.615600 -4.475942 4.813632
v 1.729053 -4.618680 4.854463
v 1.838624 -4.828746 4.823737
v 2.368250 -3.106237 4.868096
v 7.542244 -1.049282 -2.431321
v 1.826614 -4.399531 4.399021
v 1.929558 -4.411831 4.497052
v 0.597442 -2.013686 5.866456
v 1.405627 -1.714196 5.241087
v 0.662449 -1.819321 5.863759
v 2.342340 0.572222 4.294303
v 3.327324 0.104863 4.113860
v 1.726175 -0.919165 5.273355
v 5.133204 7.485602 2.660442
v 4.538641 6.319907 3.683424
v 3.986562 5.109487 4.466315
v 2.169681 -5.440433 4.455874
v 1.395634 5.011963 5.316032
v 1.619500 6.599217 4.921106
v 1.891399 8.236377 4.274997
v 4.195832 2.235205 3.375099
v 5.733342 1.411738 2.431726
v 1.859887 2.355757 3.843181
v 4.988612 3.074654 3.083858
v 1.303263 1.416453 4.831091
v 1.305757 -0.672779 6.415959
v 6.465170 0.937119 1.689873
v 5.258659 0.945811 2.974312
v 4.432338 0.722096 3.522615
v 3.300681 0.861641 3.872784
v 2.430178 1.131492 4.039035
v 1.820731 1.467954 4.224124
v 0.563221 2.307693 5.566789
v 6.338145 -0.529279 1.881175
v 5.587698 3.208071 2.687839
v 0.242624 -1.462857 7.071491
v 1.611251 0.339326 4.895421
v 7.743095 2.364999 -2.005167
v 1.391142 1.851048 4.448999
v 1.785794 -0.978284 4.850470
v 4.670959 2.664461 3.084075
v 1.333970 -0.283761 6.097047
v 7.270895 -2.890917 -2.252455
v 1.856432 2.585245 3.757904
v 0.923388 0.073076 6.671944
v 5.000589 -6.135128 1.892523
v 5.085276 -7.178590 0.714711
v 7.159291 -0.811820 -0.072044
v 5.843051 -5.248023 0.924091
v 6.847258 3.662916 0.724695
v 2.412942 -8.258853 4.119213
v 0.179909 -1.689864 6.573301
v 2.103655 -0.163946 4.566119
v 6.407571 2.236021 1.560843
v 3.670075 2.360153 3.635230
v 3.177186 2.294265 3.775704
v 2.196121 -4.598322 4.479786
v 6.234883 -1.944430 1.663542
v 1.292924 -9.295920 4.094063
v 3.210651 -8.533278 2.802001
v 4.068926 -7.993109 1.925119
v 2.724032 2.315802 3.777151
v 2.288460 2.398891 3.697603
v 1.998311 2.496547 3.689148
v 6.130040 3.399261 2.038516
v 2.288460 2.886504 3.775031
v 2.724032 2.961810 3.871767
v 3.177186 2.964136 3.876973
v 3.670075 2.927714 3.724325
v 4.018389 2.857357 3.482983
v 7.555811 4.106811 -0.991917
v 4.018389 2.483695 3.440898
v 1.776217 -2.683946 5.213116
v 1.222237 -1.182444 5.952465
v 0.731493 -2.536683 5.815343
v 4.135272 -6.996638 2.671970
v 3.311811 -7.660815 3.382963
v 1.313701 -8.639995 4.702456
v 5.940524 -6.223629 -0.631468
v 1.998311 2.743838 3.744030
v 0.901447 1.236992 5.754256
v 2.308977 -8.974196 3.609070
v 6.954154 -2.439843 -0.131163
v 1.098819 -4.458788 5.120727
v 1.181124 -4.579996 5.189564
v 1.255818 -4.787901 5.237051
v 1.325085 -5.106507 5.205010
v 1.546388 -5.819392 4.757893
v 1.953754 -4.183892 4.431713
v 2.117802 -4.137093 4.555096
v 2.285339 -4.051196 4.582438
v 2.850160 -3.665720 4.484994
v 5.278538 -2.238942 2.861224
v 0.946709 1.907628 5.196779
v 1.314173 3.104912 4.231404
v 1.780000 2.860000 3.881555
v 1.845110 -4.098880 4.247264
v 5.436187 -4.030482 2.109852
v 0.766444 3.182131 4.861453
v 1.938616 -6.614410 4.521085
v 0.516573 1.583572 6.148363
v 1.246815 0.230297 5.681036
v 0.997827 -6.930921 4.979576
v 3.288807 -5.382514 3.795752
v 2.311631 -1.566237 4.590085
v 2.680250 -6.111567 4.096152
v 3.832928 -1.537326 4.137731
v 2.961860 -2.274215 4.440943
v 4.386901 -2.683286 3.643886
v 1.217295 -7.834465 4.969286
v 1.542374 -0.136843 5.201008
v 3.878377 -6.041764 3.311079
v 3.084037 -6.809842 3.814195
v 3.747321 -4.503545 3.726453
v 6.094129 -3.205991 1.473482
v 4.588995 -4.728726 2.983221
v 6.583231 -3.941269 0.070268
v 3.492580 -3.195820 4.130198
v 1.255543 0.802341 5.307551
v 1.126122 -0.933602 6.538785
v 1.443109 -1.142774 5.905127
v 0.923043 -0.529042 7.003423
v 1.755386 3.529117 4.327696
v 2.632589 3.713828 4.364629
v 3.388062 3.721976 4.309028
v 4.075766 3.675413 4.076063
v 4.622910 3.474691 3.646321
v 5.171755 2.535753 2.670867
v 7.297331 0.763172 -0.048769
v 4.706828 1.651000 3.109532
v 4.071712 1.476821 3.476944
v 3.269817 1.470659 3.731945
v 2.527572 1.617311 3.865444
v 1.970894 1.858505 3.961782
v 1.579543 2.097941 4.084996
v 7.664182 0.673132 -2.435867
v 1.397041 -1.340139 5.630378
v 0.884838 0.658740 6.233232
v 0.767097 -0.968035 7.077932
v 0.460213 -1.334106 6.787447
v 0.748618 -1.067994 6.798303
v 1.236408 -1.585568 5.480490
v 0.387306 -1.409990 6.957705
v 0.319925 -1.607931 6.508676
v 1.639633 2.556298 3.863736
v 1.255645 2.467144 4.203800
v 1.031362 2.382663 4.615849
v 4.253081 2.772296 3.315305
v 4.530000 2.910000 3.339685
vt 0.499977 0.347466
vt 0.500026 0.452513
vt 0.499974 0.397628
vt 0.482113 0.528021
vt 0.500151 0.472844
vt 0.499910 0.501747
vt 0.499523 0.598938
vt 0.289712 0.619236
vt 0.499955 0.687602
vt 0.499987 0.730081
vt 0.500023 0.892950
vt 0.500023 0.333766
vt 0.500016 0.320776
vt 0.500023 0.307652
vt 0.499977 0.304722
vt 0.499977 0.294066
vt 0.499977 0.280615
vt 0.499977 0.262981
vt 0.499968 0.218629
vt 0.499816 0.437019
vt 0.473773 0.426090
vt 0.104907 0.745859
vt 0.365930 0.590424
vt 0.338758 0.586975
vt 0.311120 0.590540
vt 0.274658 0.610869
vt 0.393362 0.596294
vt 0.345234 0.655989
vt 0.370094 0.653924
vt 0.319322 0.652735
vt 0.297903 0.646409
vt 0.247792 0.589190
vt 0.396889 0.157245
vt 0.280098 0.624400
vt 0.106310 0.600044
vt 0.209925 0.608647
vt 0.355808 0.465594
vt 0.471751 0.349596
vt 0.474155 0.319808
vt 0.439785 0.342771
vt 0.414617 0.333459
vt 0.450374 0.319139
vt 0.428771 0.317309
vt 0.374971 0.272195
vt 0.486717 0.452371
vt 0.485301 0.472605
vt 0.257765 0.685510
vt 0.401223 0.544828
vt 0.429819 0.451385
vt 0.421352 0.466259
vt 0.276896 0.467943
vt 0.483370 0.500413
vt 0.337212 0.717117
vt 0.296392 0.706757
vt 0.169295 0.806186
vt 0.447580 0.697390
vt 0.392390 0.646112
vt 0.354490 0.303216
vt 0.067305 0.269895
vt 0.442739 0.427174
vt 0.457098 0.415208
vt 0.381974 0.305289
vt 0.392389 0.305797
vt 0.277076 0.728068
vt 0.422552 0.436767
vt 0.385919 0.718636
vt 0.383103 0.744160
vt 0.331431 0.880286
vt 0.229924 0.767997
vt 0.364501 0.810886
vt 0.229622 0.700459
vt 0.173287 0.721252
vt 0.472879 0.333802
vt 0.446828 0.331473
vt 0.422762 0.326110
vt 0.445308 0.419934
vt 0.388103 0.306039
vt 0.403039 0.293460
vt 0.403629 0.306047
vt 0.460042 0.442861
vt 0.431158 0.307634
vt 0.452182 0.307634
vt 0.475387 0.307634
vt 0.465828 0.220810
vt 0.472329 0.263774
vt 0.473087 0.282143
vt 0.473122 0.295374
vt 0.473033 0.304722
vt 0.427942 0.304722
vt 0.426479 0.296460
vt 0.423162 0.288154
vt 0.418309 0.279937
vt 0.390095 0.360427
vt 0.013954 0.439966
vt 0.499914 0.419853
vt 0.413200 0.304600
vt 0.409626 0.298177
vt 0.468080 0.398465
vt 0.422729 0.414015
vt 0.463080 0.406216
vt 0.372120 0.526586
vt 0.334562 0.503927
vt 0.411671 0.453035
vt 0.242176 0.852324
vt 0.290777 0.798554
vt 0.327338 0.743473
vt 0.399510 0.251079
vt 0.441728 0.738324
vt 0.429765 0.812166
vt 0.412198 0.891099
vt 0.288955 0.601048
vt 0.218937 0.564589
vt 0.412782 0.601030
vt 0.257135 0.644560
vt 0.427685 0.562039
vt 0.448340 0.463064
vt 0.178560 0.542446
vt 0.247308 0.542806
vt 0.286267 0.532325
vt 0.332828 0.539288
vt 0.368756 0.552793
vt 0.398964 0.567345
vt 0.476410 0.594194
vt 0.189241 0.476076
vt 0.228962 0.651049
vt 0.490726 0.437599
vt 0.404670 0.514867
vt 0.019469 0.598436
vt 0.426243 0.579569
vt 0.396993 0.451203
vt 0.266470 0.623023
vt 0.439121 0.481042
vt 0.032314 0.355643
vt 0.419054 0.612845
vt 0.462783 0.494253
vt 0.238979 0.220255
vt 0.198221 0.168062
vt 0.107550 0.459245
vt 0.183610 0.259743
vt 0.134410 0.666317
vt 0.385764 0.116846
vt 0.490967 0.420622
vt 0.382385 0.491427
vt 0.174399 0.602329
vt 0.318785 0.603765
vt 0.343364 0.599403
vt 0.396100 0.289783
vt 0.187885 0.411462
vt 0.430987 0.055935
vt 0.318993 0.101715
vt 0.266248 0.130299
vt 0.500023 0.809424
vt 0.499977 0.045547
vt 0.366170 0.601178
vt 0.393207 0.604463
vt 0.410373 0.608920
vt 0.194993 0.657898
vt 0.388665 0.637716
vt 0.365962 0.644029
vt 0.343364 0.644643
vt 0.318785 0.641660
vt 0.301415 0.636844
vt 0.058133 0.680924
vt 0.301415 0.612551
vt 0.499988 0.381566
vt 0.415838 0.375804
vt 0.445682 0.433923
vt 0.465844 0.379359
vt 0.499923 0.648476
vt 0.288719 0.180054
vt 0.335279 0.147180
vt 0.440512 0.097581
vt 0.128294 0.208059
vt 0.408772 0.626106
vt 0.455607 0.548199
vt 0.499877 0.091010
vt 0.375437 0.075808
vt 0.114210 0.384978
vt 0.448662 0.304722
vt 0.448020 0.295368
vt 0.447112 0.284192
vt 0.444832 0.269206
vt 0.430012 0.233191
vt 0.406787 0.314327
vt 0.400738 0.318931
vt 0.392400 0.322297
vt 0.367856 0.336081
vt 0.247923 0.398667
vt 0.452770 0.579150
vt 0.436392 0.640113
vt 0.416164 0.631286
vt 0.413386 0.307634
vt 0.228018 0.316428
vt 0.468268 0.647329
vt 0.411362 0.195673
vt 0.499989 0.530175
vt 0.479154 0.557346
vt 0.499974 0.560363
vt 0.432112 0.506411
vt 0.499886 0.133083
vt 0.499913 0.178271
vt 0.456549 0.180799
vt 0.344549 0.254561
vt 0.378909 0.425990
vt 0.374293 0.219815
vt 0.319688 0.429262
vt 0.357155 0.395730
vt 0.295284 0.378419
vt 0.447750 0.137523
vt 0.410986 0.491277
vt 0.313951 0.224692
vt 0.354128 0.187447
vt 0.324548 0.296007
vt 0.189096 0.353700
vt 0.279777 0.285342
vt 0.133823 0.317299
vt 0.336768 0.355267
vt 0.429884 0.533478
vt 0.455528 0.451377
vt 0.437114 0.441104
vt 0.467288 0.470075
vt 0.414712 0.664780
vt 0.377046 0.677222
vt 0.344108 0.679849
vt 0.312876 0.677668
vt 0.283526 0.666810
vt 0.241246 0.617214
vt 0.102986 0.531237
vt 0.267612 0.575440
vt 0.297879 0.566824
vt 0.333434 0.566122
vt 0.366427 0.573884
vt 0.396012 0.583304
vt 0.420121 0.589772
vt 0.007561 0.519223
vt 0.432949 0.430482
vt 0.458639 0.520911
vt 0.473466 0.454256
vt 0.476088 0.436170
vt 0.468472 0.444943
vt 0.433991 0.417638
vt 0.483518 0.437016
vt 0.482483 0.422151
vt 0.426450 0.610201
vt 0.438999 0.603505
vt 0.450067 0.599566
vt 0.289712 0.631747
vt 0.276670 0.636627
vt 0.517862 0.528052
vt 0.710288 0.619236
vt 0.526227 0.426090
vt 0.895093 0.745859
vt 0.634070 0.590424
vt 0.661242 0.586975
vt 0.688880 0.590540
vt 0.725342 0.610869
vt 0.606630 0.596295
vt 0.654766 0.655989
vt 0.629906 0.653924
vt 0.680678 0.652735
vt 0.702097 0.646409
vt 0.752212 0.589195
vt 0.602918 0.157137
vt 0.719902 0.624400
vt 0.893693 0.600040
vt 0.790082 0.608646
vt 0.643998 0.465512
vt 0.528249 0.349596
vt 0.525850 0.319809
vt 0.560215 0.342771
vt 0.585384 0.333459
vt 0.549626 0.319139
vt 0.571228 0.317308
vt 0.624852 0.271901
vt 0.513050 0.452718
vt 0.515097 0.472748
vt 0.742247 0.685493
vt 0.598631 0.545021
vt 0.570338 0.451425
vt 0.578632 0.466377
vt 0.723087 0.467946
vt 0.516446 0.500361
vt 0.662801 0.717082
vt 0.703624 0.706729
vt 0.830705 0.806186
vt 0.552386 0.697432
vt 0.607610 0.646112
vt 0.645429 0.303293
vt 0.932695 0.269895
vt 0.557261 0.427174
vt 0.542902 0.415208
vt 0.618026 0.305289
vt 0.607591 0.305797
vt 0.722943 0.728037
vt 0.577414 0.436833
vt 0.614083 0.718613
vt 0.616907 0.744114
vt 0.668509 0.880086
vt 0.770092 0.767979
vt 0.635536 0.810751
vt 0.770391 0.700444
vt 0.826722 0.721245
vt 0.527121 0.333802
vt 0.553172 0.331473
vt 0.577238 0.326110
vt 0.554692 0.419934
vt 0.611897 0.306039
vt 0.596961 0.293460
vt 0.596371 0.306047
vt 0.539958 0.442861
vt 0.568842 0.307634
vt 0.547818 0.307634
vt 0.524613 0.307634
vt 0.534090 0.220859
vt 0.527671 0.263774
vt 0.526913 0.282143
vt 0.526878 0.295374
vt 0.526967 0.304722
vt 0.572058 0.304722
vt 0.573521 0.296460
vt 0.576838 0.288154
vt 0.581691 0.279937
vt 0.609945 0.360090
vt 0.986046 0.439966
vt 0.586800 0.304600
vt 0.590372 0.298177
vt 0.531915 0.398463
vt 0.577268 0.414065
vt 0.536915 0.406214
vt 0.627543 0.526648
vt 0.665586 0.504049
vt 0.588354 0.453138
vt 0.757824 0.852324
vt 0.709250 0.798492
vt 0.672684 0.743419
vt 0.600409 0.250995
vt 0.558266 0.738328
vt 0.570304 0.812129
vt 0.588166 0.890956
vt 0.711045 0.601048
vt 0.781070 0.564595
vt 0.587247 0.601068
vt 0.742870 0.644554
vt 0.572156 0.562348
vt 0.551868 0.463430
vt 0.821442 0.542444
vt 0.752702 0.542818
vt 0.713757 0.532373
vt 0.667113 0.539327
vt 0.631101 0.552846
vt 0.600862 0.567527
vt 0.523481 0.594373
vt 0.810748 0.476074
vt 0.771046 0.651041
vt 0.509127 0.437282
vt 0.595293 0.514976
vt 0.980531 0.598436
vt 0.573500 0.580000
vt 0.602995 0.451312
vt 0.733530 0.623023
vt 0.560611 0.480983
vt 0.967686 0.355643
vt 0.580985 0.612840
vt 0.537728 0.494615
vt 0.760966 0.220247
vt 0.801779 0.168062
vt 0.892441 0.459239
vt 0.816351 0.259740
vt 0.865595 0.666313
vt 0.614074 0.116754
vt 0.508953 0.420562
vt 0.617942 0.491684
vt 0.825608 0.602325
vt 0.681215 0.603765
vt 0.656636 0.599403
vt 0.603900 0.289783
vt 0.812086 0.411461
vt 0.568013 0.055435
vt 0.681008 0.101715
vt 0.733752 0.130299
vt 0.633830 0.601178
vt 0.606793 0.604463
vt 0.589660 0.608938
vt 0.805016 0.657892
vt 0.611335 0.637716
vt 0.634038 0.644029
vt 0.656636 0.644643
vt 0.681215 0.641660
vt 0.698585 0.636844
vt 0.941867 0.680924
vt 0.698585 0.612551
vt 0.584177 0.375893
vt 0.554318 0.433923
vt 0.534154 0.379360
vt 0.711218 0.180025
vt 0.664630 0.147129
vt 0.559100 0.097368
vt 0.871706 0.208059
vt 0.591234 0.626106
vt 0.544341 0.548416
vt 0.624563 0.075808
vt 0.885770 0.384971
vt 0.551338 0.304722
vt 0.551980 0.295368
vt 0.552888 0.284192
vt 0.555168 0.269206
vt 0.569944 0.232965
vt 0.593203 0.314324
vt 0.599262 0.318931
vt 0.607600 0.322297
vt 0.631938 0.336500
vt 0.752033 0.398685
vt 0.547226 0.579605
vt 0.563544 0.640172
vt 0.583841 0.631286
vt 0.586614 0.307634
vt 0.771915 0.316422
vt 0.531597 0.647517
vt 0.588371 0.195559
vt 0.520797 0.557435
vt 0.567985 0.506521
vt 0.543283 0.180745
vt 0.655317 0.254485
vt 0.621009 0.425982
vt 0.625560 0.219688
vt 0.680198 0.429281
vt 0.642764 0.395662
vt 0.704663 0.378470
vt 0.552012 0.137408
vt 0.589072 0.491363
vt 0.685945 0.224643
vt 0.645735 0.187360
vt 0.675343 0.296022
vt 0.810858 0.353695
vt 0.720122 0.285333
vt 0.866152 0.317295
vt 0.663187 0.355403
vt 0.570082 0.533674
vt 0.544562 0.451624
vt 0.562759 0.441215
vt 0.531987 0.469860
vt 0.585271 0.664823
vt 0.622953 0.677221
vt 0.655896 0.679837
vt 0.687132 0.677654
vt 0.716482 0.666799
vt 0.758757 0.617213
vt 0.897013 0.531231
vt 0.732392 0.575453
vt 0.702114 0.566837
vt 0.666525 0.566134
vt 0.633505 0.573912
vt 0.603876 0.583413
vt 0.579658 0.590055
vt 0.992440 0.519223
vt 0.567192 0.430580
vt 0.541366 0.521101
vt 0.526564 0.453882
vt 0.523913 0.436170
vt 0.531529 0.444943
vt 0.566036 0.417671
vt 0.516311 0.436946
vt 0.517472 0.422123
vt 0.573595 0.610193
vt 0.560698 0.604668
vt 0.549756 0.600249
vt 0.710288 0.631747
vt 0.723330 0.636627
f 174 156 134
f 247 34 8
f 383 399 363
f 264 467 250
f 309 416 325
f 79 96 192
f 357 390 265
f 128 35 163
f 369 265 390
f 140 163 35
f 268 1 303
f 38 73 1
f 12 303 1
f 12 1 73
f 350 452 351
f 121 122 232
f 453 351 452
f 233 232 122
f 268 303 270
f 38 40 73
f 304 270 303
f 74 73 40
f 358 344 351
f 129 122 115
f 278 351 344
f 48 115 122
f 351 453 358
f 122 129 233
f 454 358 453
f 234 233 129
f 300 334 298
f 70 68 105
f 333 298 334
f 104 105 68
f 176 153 397
f 176 172 153
f 378 397 153
f 149 153 172
f 382 385 383
f 155 156 158
f 399 383 385
f 174 158 156
f 281 348 331
f 51 102 119
f 349 331 348
f 120 119 102
f 270 304 271
f 40 41 74
f 305 271 304
f 75 74 41
f 10 337 152
f 10 152 108
f 338 152 337
f 109 108 152
f 345 279 361
f 116 132 49
f 280 361 279
f 50 49 132
f 263 432 419
f 33 195 212
f 425 419 432
f 205 212 195
f 305 409 271
f 75 41 185
f 410 271 409
f 186 185 41
f 273 311 408
f 43 184 81
f 416 408 311
f 192 81 184
f 323 271 411
f 93 187 41
f 410 411 271
f 186 41 187
f 348 450 349
f 119 120 230
f 451 349 450
f 231 230 120
f 435 433 431
f 215 211 213
f 423 431 433
f 203 213 211
f 314 315 19
f 84 19 85
f 18 19 315
f 18 85 19
f 308 376 307
f 78 77 147
f 292 307 376
f 62 147 77
f 260 388 261
f 30 31 161
f 389 261 388
f 162 161 31
f 287 415 385
f 57 158 191
f 399 385 415
f 174 191 158
f 419 425 407
f 195 183 205
f 336 407 425
f 107 205 183
f 368 417 365
f 139 136 193
f 435 365 417
f 215 193 136
f 392 424 328
f 166 99 204
f 359 328 424
f 130 204 99
f 299 302 285
f 69 55 72
f 252 285 302
f 22 72 55
f 5 276 6
f 5 6 46
f 282 6 276
f 52 46 6
f 255 374 254
f 25 24 145
f 375 254 374
f 146 145 24
f 321 322 308
f 91 78 92
f 376 308 322
f 147 92 78
f 281 426 412
f 51 188 206
f 428 412 426
f 208 206 188
f 422 314 201
f 202 201 84
f 19 201 314
f 19 84 201
f 336 322 407
f 107 183 92
f 406 407 322
f 182 92 183
f 406 322 405
f 182 181 92
f 321 405 322
f 91 92 181
f 18 315 17
f 18 17 85
f 316 17 315
f 86 85 17
f 426 267 427
f 206 207 37
f 424 427 267
f 204 37 207
f 370 397 401
f 141 177 172
f 378 401 397
f 149 172 177
f 392 270 323
f 166 93 40
f 271 323 270
f 41 40 93
f 418 466 414
f 194 190 246
f 465 414 466
f 245 246 190
f 258 259 387
f 28 160 29
f 386 387 259
f 159 29 160
f 261 389 468
f 31 248 162
f 467 468 389
f 247 162 248
f 249 457 420
f 4 197 237
f 400 420 457
f 175 237 197
f 334 299 333
f 105 104 69
f 285 333 299
f 55 69 104
f 286 9 418
f 56 194 9
f 169 418 9
f 169 9 194
f 341 262 347
f 112 118 32
f 449 347 262
f 229 32 118
f 286 418 442
f 56 222 194
f 414 442 418
f 190 194 222
f 328 461 327
f 99 98 241
f 329 327 461
f 100 241 98
f 278 356 330
f 48 101 127
f 372 330 356
f 143 127 101
f 310 393 439
f 80 219 167
f 440 439 393
f 220 167 219
f 382 383 257
f 155 27 156
f 342 257 383
f 113 156 27
f 361 280 421
f 132 199 50
f 430 421 280
f 210 50 199
f 366 365 380
f 137 151 136
f 395 380 365
f 170 136 151
f 356 278 438
f 127 218 48
f 344 438 278
f 115 48 218
f 444 445 283
f 224 53 225
f 284 283 445
f 54 225 53
f 282 276 364
f 52 135 46
f 441 364 276
f 221 46 135
f 432 263 396
f 212 171 33
f 370 396 263
f 141 33 171
f 338 300 339
f 109 110 70
f 298 339 300
f 68 70 110
f 336 274 322
f 107 92 44
f 376 322 274
f 147 44 92
f 349 451 350
f 120 121 231
f 452 350 451
f 232 231 121
f 468 360 343
f 248 114 131
f 447 343 360
f 227 131 114
f 283 284 335
f 53 106 54
f 294 335 284
f 64 54 106
f 251 459 463
f 21 243 239
f 462 463 459
f 242 239 243
f 277 354 301
f 47 71 125
f 384 301 354
f 157 125 71
f 326 293 325
f 97 96 63
f 309 325 293
f 79 63 96
f 284 277 294
f 54 64 47
f 301 294 277
f 71 47 64
f 448 265 346
f 228 117 35
f 373 346 265
f 144 35 117
f 353 346 347
f 124 118 117
f 341 347 346
f 112 117 118
f 2 20 275
f 2 45 20
f 355 275 20
f 126 20 45
f 249 282 457
f 4 237 52
f 364 457 282
f 135 52 237
f 426 427 428
f 206 208 207
f 437 428 427
f 217 207 208
f 381 382 253
f 154 23 155
f 257 253 382
f 27 155 23
f 392 394 270
f 166 40 168
f 268 270 394
f 38 168 40
f 200 429 201
f 200 201 209
f 422 201 429
f 202 209 201
f 331 330 267
f 102 37 101
f 372 267 330
f 143 101 37
f 423 433 274
f 203 44 213
f 288 274 433
f 58 213 44
f 291 251 329
f 61 100 21
f 463 329 251
f 243 21 100
f 259 287 386
f 29 159 57
f 385 386 287
f 158 57 159
f 343 447 354
f 114 125 227
f 266 354 447
f 36 227 125
f 258 387 260
f 28 30 160
f 388 260 387
f 161 160 30
f 431 423 432
f 211 212 203
f 425 432 423
f 205 203 212
f 446 343 277
f 226 47 114
f 354 277 343
f 125 114 47
f 425 423 336
f 205 107 203
f 274 336 423
f 44 203 107
f 307 293 308
f 77 78 63
f 326 308 293
f 97 63 78
f 367 448 353
f 138 124 228
f 346 353 448
f 117 228 124
f 303 269 304
f 73 74 39
f 272 304 269
f 42 39 74
f 372 359 267
f 143 37 130
f 424 267 359
f 204 130 37
f 328 295 461
f 99 241 65
f 456 461 295
f 236 65 241
f 295 332 279
f 65 49 103
f 280 279 332
f 50 103 49
f 304 272 305
f 74 75 42
f 273 305 272
f 43 42 75
f 428 437 435
f 208 215 217
f 433 435 437
f 213 217 215
f 305 273 409
f 75 185 43
f 408 409 273
f 184 43 185
f 395 431 396
f 170 171 211
f 432 396 431
f 212 211 171
f 396 370 379
f 171 150 141
f 401 379 370
f 177 141 150
f 297 335 300
f 67 70 106
f 334 300 335
f 105 106 70
f 418 169 352
f 194 123 169
f 7 352 169
f 7 169 123
f 281 412 353
f 51 124 188
f 377 353 412
f 148 188 124
f 320 321 326
f 90 97 91
f 308 326 321
f 78 91 97
f 286 296 337
f 56 108 66
f 297 337 296
f 67 66 108
f 405 321 404
f 181 180 91
f 320 404 321
f 90 91 180
f 331 349 330
f 102 101 120
f 350 330 349
f 121 120 101
f 335 294 334
f 106 105 64
f 299 334 294
f 69 64 105
f 324 455 367
f 94 138 235
f 448 367 455
f 228 235 138
f 17 316 16
f 17 16 86
f 317 16 316
f 87 86 16
f 430 280 359
f 210 130 50
f 332 359 280
f 103 50 130
f 16 317 15
f 16 15 87
f 318 15 317
f 88 87 15
f 9 286 10
f 9 10 56
f 337 10 286
f 108 56 10
f 330 350 278
f 101 48 121
f 351 278 350
f 122 121 48
f 253 254 381
f 23 154 24
f 375 381 254
f 146 24 154
f 403 404 319
f 179 89 180
f 320 319 404
f 90 180 89
f 352 7 420
f 123 197 7
f 198 420 7
f 198 7 197
f 325 319 326
f 96 97 89
f 320 326 319
f 90 89 97
f 398 368 366
f 173 137 139
f 365 366 368
f 136 139 137
f 289 436 398
f 59 173 216
f 368 398 436
f 139 216 173
f 439 440 345
f 219 116 220
f 279 345 440
f 49 220 116
f 272 312 273
f 42 43 82
f 311 273 312
f 81 82 43
f 6 282 196
f 6 196 52
f 249 196 282
f 4 52 196
f 274 288 376
f 44 147 58
f 292 376 288
f 62 58 147
f 397 429 176
f 172 176 209
f 200 176 429
f 200 209 176
f 269 313 272
f 39 42 83
f 312 272 313
f 82 83 42
f 445 446 284
f 225 54 226
f 277 284 446
f 47 226 54
f 255 340 374
f 25 145 111
f 391 374 340
f 164 111 145
f 296 283 297
f 66 67 53
f 335 297 283
f 106 53 67
f 347 449 348
f 118 119 229
f 450 348 449
f 230 229 119
f 455 357 448
f 235 228 128
f 265 448 357
f 35 128 228
f 337 297 338
f 108 109 67
f 300 338 297
f 70 67 109
f 152 338 11
f 152 11 109
f 339 11 338
f 110 109 11
f 279 440 295
f 49 65 220
f 456 295 440
f 236 220 65
f 408 416 293
f 184 63 192
f 309 293 416
f 79 192 63
f 359 372 430
f 130 210 143
f 356 430 372
f 127 143 210
f 346 373 341
f 117 112 144
f 266 341 373
f 36 144 112
f 389 391 467
f 162 247 164
f 250 467 391
f 8 164 247
f 353 347 281
f 124 51 118
f 348 281 347
f 119 118 51
f 296 443 283
f 66 53 223
f 444 283 443
f 224 223 53
f 20 95 355
f 20 126 95
f 371 355 95
f 142 95 126
f 296 286 443
f 66 223 56
f 442 443 286
f 222 56 223
f 420 198 249
f 197 4 198
f 196 249 198
f 196 198 4
f 360 264 256
f 131 26 34
f 250 256 264
f 8 34 26
f 276 275 441
f 46 221 45
f 458 441 275
f 238 45 221
f 301 384 302
f 71 72 157
f 369 302 384
f 140 157 72
f 418 352 466
f 194 246 123
f 413 466 352
f 189 123 246
f 467 264 468
f 247 248 34
f 360 468 264
f 131 34 248
f 390 252 369
f 163 140 22
f 302 369 252
f 72 22 140
f 375 387 381
f 146 154 160
f 386 381 387
f 159 160 154
f 380 395 379
f 151 150 170
f 396 379 395
f 171 170 150
f 352 420 413
f 123 189 197
f 400 413 420
f 175 197 189
f 427 323 437
f 207 217 93
f 411 437 323
f 187 93 217
f 388 374 389
f 161 162 145
f 391 389 374
f 164 145 162
f 394 327 165
f 168 165 98
f 3 165 327
f 3 98 165
f 355 371 462
f 126 242 142
f 463 462 371
f 243 142 242
f 1 268 165
f 1 165 38
f 394 165 268
f 168 38 165
f 12 13 303
f 12 73 13
f 269 303 13
f 39 13 73
f 387 375 388
f 160 161 146
f 374 388 375
f 145 146 161
f 13 14 269
f 13 39 14
f 313 269 14
f 83 14 39
f 294 301 299
f 64 69 71
f 302 299 301
f 72 71 69
f 341 266 262
f 112 32 36
f 447 262 266
f 227 36 32
f 381 386 382
f 154 155 159
f 385 382 386
f 158 159 155
f 281 331 426
f 51 206 102
f 267 426 331
f 37 102 206
f 424 392 427
f 204 207 166
f 323 427 392
f 93 166 207
f 430 356 421
f 210 199 127
f 438 421 356
f 218 127 199
f 392 328 394
f 166 168 99
f 327 394 328
f 98 99 168
f 458 439 441
f 238 221 219
f 345 441 439
f 116 219 221
f 383 363 342
f 156 113 134
f 464 342 363
f 244 134 113
f 458 462 460
f 238 240 242
f 459 460 462
f 239 242 240
f 435 431 365
f 215 136 211
f 395 365 431
f 170 211 136
f 415 464 399
f 191 174 244
f 363 399 464
f 134 244 174
f 263 429 370
f 33 141 209
f 397 370 429
f 172 209 141
f 458 275 462
f 238 242 45
f 355 462 275
f 126 45 242
f 317 404 318
f 87 88 180
f 403 318 404
f 179 180 88
f 316 405 317
f 86 87 181
f 404 317 405
f 180 181 87
f 315 406 316
f 85 86 182
f 405 316 406
f 181 182 86
f 314 407 315
f 84 85 183
f 406 315 407
f 182 183 85
f 419 407 422
f 195 202 183
f 314 422 407
f 84 183 202
f 367 402 324
f 138 94 178
f 362 324 402
f 133 178 94
f 409 408 307
f 185 77 184
f 293 307 408
f 63 184 77
f 409 307 410
f 185 186 77
f 292 410 307
f 62 77 186
f 411 410 288
f 187 58 186
f 292 288 410
f 62 186 58
f 437 411 433
f 217 213 187
f 288 433 411
f 58 187 213
f 435 417 428
f 215 208 193
f 412 428 417
f 188 193 208
f 265 369 373
f 35 144 140
f 384 373 369
f 157 140 144
f 458 460 439
f 238 219 240
f 310 439 460
f 80 240 219
f 353 377 367
f 124 138 148
f 402 367 377
f 178 148 138
f 5 2 276
f 5 46 2
f 275 276 2
f 45 2 46
f 429 263 422
f 209 202 33
f 419 422 263
f 195 33 202
f 328 359 295
f 99 65 130
f 332 295 359
f 103 130 65
f 368 436 417
f 139 193 216
f 434 417 436
f 214 216 193
f 456 440 290
f 236 60 220
f 393 290 440
f 167 220 60
f 329 463 327
f 100 98 243
f 371 327 463
f 142 243 98
f 327 371 3
f 98 3 142
f 95 3 371
f 95 142 3
f 461 456 306
f 241 76 236
f 290 306 456
f 60 236 76
f 449 340 450
f 229 230 111
f 255 450 340
f 25 111 230
f 262 447 256
f 32 26 227
f 360 256 447
f 131 227 26
f 450 255 451
f 230 231 25
f 254 451 255
f 24 25 231
f 451 254 452
f 231 232 24
f 253 452 254
f 23 24 232
f 452 253 453
f 232 233 23
f 257 453 253
f 27 23 233
f 257 342 453
f 27 233 113
f 454 453 342
f 234 113 233
f 414 465 415
f 190 191 245
f 464 415 465
f 244 245 191
f 442 414 287
f 222 57 190
f 415 287 414
f 191 190 57
f 442 287 443
f 222 223 57
f 259 443 287
f 29 57 223
f 443 259 444
f 223 224 29
f 258 444 259
f 28 29 224
f 445 444 260
f 225 30 224
f 258 260 444
f 28 224 30
f 260 261 445
f 30 225 31
f 446 445 261
f 226 31 225
f 261 468 446
f 31 226 248
f 343 446 468
f 114 248 226
f 251 310 459
f 21 239 80
f 460 459 310
f 240 80 239
f 291 306 393
f 61 167 76
f 290 393 306
f 60 76 167
f 461 306 329
f 241 100 76
f 291 329 306
f 61 76 100
f 377 434 402
f 148 178 214
f 436 402 434
f 216 214 178
f 251 291 310
f 21 80 61
f 393 310 291
f 167 61 80
f 412 417 377
f 188 148 193
f 434 377 417
f 214 193 148
f 342 464 454
f 113 234 244
f 465 454 464
f 245 244 234
f 454 465 358
f 234 129 245
f 466 358 465
f 246 245 129
f 413 344 466
f 189 246 115
f 358 466 344
f 129 115 246
f 438 344 400
f 218 175 115
f 413 400 344
f 189 115 175
f 364 441 361
f 135 132 221
f 345 361 441
f 116 221 132
f 457 421 400
f 237 175 199
f 438 400 421
f 218 199 175
f 457 364 421
f 237 199 135
f 361 421 364
f 132 135 199
f 362 402 289
f 133 59 178
f 436 289 402
f 216 178 59
f 354 266 384
f 125 157 36
f 373 384 266
f 144 36 157
f 256 250 340
f 26 111 8
f 391 340 250
f 164 8 111
f 262 256 449
f 32 229 26
f 340 449 256
f 111 26 229
f 15 318 14
f 15 14 88
f 313 14 318
f 83 88 14
f 318 403 313
f 88 83 179
f 312 313 403
f 82 179 83
f 403 319 312
f 179 82 89
f 311 312 319
f 81 89 82
f 319 325 311
f 89 81 96
f 416 311 325
f 192 96 81